<?xml version="1.0" standalone="no"?>
<!DOCTYPE svg PUBLIC "-//W3C//DTD SVG 20010904//EN"
 "http://www.w3.org/TR/2001/REC-SVG-20010904/DTD/svg10.dtd">
<svg version="1.0" xmlns="http://www.w3.org/2000/svg"
 width="500.000000pt" height="150.000000pt" viewBox="0 0 500.000000 150.000000"
 preserveAspectRatio="xMidYMid meet">

<g transform="translate(0.000000,150.000000) scale(0.100000,-0.100000)"
fill="#000000" stroke="none">
<path d="M1480 950 c-9 -6 -50 -8 -107 -4 -109 8 -174 -6 -203 -44 -26 -32
-25 -55 3 -78 12 -10 16 -12 10 -4 -57 64 65 131 206 113 l61 -8 -56 -85 c-73
-111 -70 -107 -51 -91 21 16 21 14 2 -38 -8 -22 -10 -41 -6 -41 4 0 31 27 60
60 57 65 81 78 56 29 -20 -37 -16 -83 6 -87 9 -2 29 8 45 21 l28 25 11 -22
c21 -42 90 -29 141 27 l29 31 -38 -32 c-40 -34 -77 -48 -102 -38 -20 7 -19 17
8 57 24 36 71 68 83 56 10 -9 -12 -31 -51 -51 -16 -9 -23 -16 -15 -16 28 0 80
39 80 60 0 52 -64 27 -145 -57 -71 -72 -99 -59 -55 27 11 22 20 44 20 50 0 23
-34 7 -80 -39 -39 -39 -47 -44 -39 -23 6 15 44 58 86 98 52 49 74 77 71 90 -4
22 -35 29 -58 14z m41 -28 c-5 -9 -22 -28 -37 -42 -22 -20 -26 -21 -21 -6 10
26 51 74 60 69 4 -2 3 -12 -2 -21z m-81 -87 c-22 -27 -31 -15 -13 16 13 22 19
26 21 14 2 -9 -2 -22 -8 -30z"/>
<path d="M2175 952 c-6 -4 -39 -41 -74 -83 -63 -76 -63 -76 -100 -68 -50 12
-108 11 -132 -1 -13 -7 -19 -21 -18 -43 0 -28 1 -30 9 -10 12 30 41 43 92 43
70 0 73 -10 20 -62 -71 -70 -137 -88 -166 -46 -9 12 -16 17 -16 10 0 -21 39
-52 67 -52 38 0 105 43 151 96 35 41 43 46 67 40 24 -6 27 -10 21 -37 -7 -37
8 -69 34 -69 25 0 76 44 106 92 27 42 50 56 65 41 7 -7 2 -20 -14 -39 -29 -35
-38 -59 -31 -79 11 -27 46 -16 90 29 24 24 44 42 44 39 0 -2 -7 -20 -15 -40
-8 -20 -13 -39 -9 -42 9 -9 55 49 48 60 -12 20 18 64 65 98 81 58 116 131 62
131 -29 0 -85 -52 -106 -100 -10 -22 -22 -40 -27 -40 -4 0 -8 -8 -8 -18 0 -24
-96 -125 -110 -117 -14 9 -3 43 26 82 32 42 30 53 -6 53 -28 0 -30 2 -20 20
12 23 7 25 -21 10 -10 -6 -19 -20 -19 -32 0 -36 -86 -137 -117 -138 -9 0 -13
15 -13 45 0 42 2 45 28 46 23 2 24 2 5 6 -13 2 -23 6 -23 8 0 12 45 123 56
140 22 31 15 46 -11 27z m368 -44 c-18 -30 -80 -88 -96 -88 -14 0 22 59 59 95
41 42 62 38 37 -7z m-419 -64 c-20 -59 -24 -64 -47 -55 -15 6 -13 12 20 58 21
28 39 50 40 49 2 -2 -4 -25 -13 -52z"/>
<path d="M2726 946 c-48 -18 -96 -63 -96 -91 0 -21 17 -45 33 -45 5 0 2 7 -7
15 -58 59 137 142 247 106 82 -27 45 -102 -68 -137 -31 -10 -34 -13 -15 -13
14 0 44 8 68 19 47 21 52 13 21 -33 -17 -26 -15 -25 11 6 31 36 53 46 64 28 4
-5 -4 -22 -17 -38 -29 -34 -38 -58 -31 -78 9 -22 39 -18 71 9 l27 24 11 -22
c13 -25 50 -33 72 -14 9 7 25 12 36 10 20 -4 63 30 78 63 6 11 -4 3 -21 -17
-33 -40 -68 -53 -55 -20 15 34 17 62 6 62 -6 0 -11 -11 -11 -25 0 -14 -4 -25
-10 -25 -5 0 -10 -7 -10 -15 0 -20 -47 -42 -61 -28 -22 22 30 113 66 113 8 0
15 5 15 10 0 23 -45 8 -74 -26 -59 -69 -98 -104 -107 -98 -13 8 -2 42 27 81
32 42 30 53 -6 53 -28 0 -30 2 -20 20 6 11 7 20 2 20 -5 0 -12 13 -15 30 -4
16 -18 37 -32 46 -35 23 -149 29 -199 10z"/>
<path d="M1322 887 c-12 -13 -22 -27 -22 -31 0 -5 -18 -44 -40 -88 -22 -44
-40 -87 -40 -94 0 -19 24 -18 40 1 11 13 10 14 -4 9 -22 -8 -21 -2 10 59 40
79 82 135 105 142 17 6 19 9 8 16 -22 14 -34 11 -57 -14z"/>
<path d="M2782 887 c-12 -13 -22 -28 -22 -34 0 -6 -10 -25 -23 -44 -23 -35
-57 -115 -57 -137 0 -20 29 -13 41 11 11 20 11 21 -4 8 -22 -17 -22 -2 0 44
13 28 23 35 47 36 31 2 31 2 3 6 l-27 4 30 44 c17 24 39 50 50 58 20 14 17 27
-5 27 -6 0 -21 -10 -33 -23z"/>
<path d="M3686 855 c-11 -19 -25 -35 -33 -35 -10 0 -12 -6 -8 -19 11 -37 -82
-121 -135 -121 -29 0 -26 41 5 79 31 36 64 49 76 30 6 -10 9 -8 9 9 0 44 -48
25 -131 -54 -56 -52 -95 -72 -124 -60 -20 7 -19 17 8 57 24 36 71 68 83 56 10
-9 -12 -31 -51 -51 -16 -9 -23 -16 -15 -16 28 0 80 39 80 60 0 50 -61 28 -149
-54 -30 -28 -52 -44 -49 -36 3 8 14 34 23 58 10 24 14 46 11 50 -12 12 -41
-14 -43 -39 -4 -52 -43 -114 -93 -149 -59 -42 -93 -95 -70 -110 38 -24 79 7
123 96 15 29 43 65 65 82 38 30 38 30 47 9 14 -32 62 -34 106 -4 l36 24 9 -21
c13 -30 85 -28 117 2 29 27 37 28 37 2 0 -49 64 -31 108 31 l27 37 27 -20 c34
-24 35 -32 3 -63 -27 -28 -61 -34 -51 -9 3 8 2 12 -4 9 -16 -10 -12 -35 6 -35
29 0 83 32 90 53 6 20 -4 33 -45 56 -20 12 -7 38 31 61 40 24 73 27 64 4 -3
-8 -2 -12 4 -9 6 3 10 12 10 20 0 42 -95 16 -125 -34 -34 -57 -104 -126 -116
-114 -8 8 -6 24 6 57 20 51 24 56 69 67 31 7 31 7 4 8 -32 1 -34 8 -13 35 18
24 19 36 2 36 -7 0 -21 -16 -31 -35z m-512 -247 c-40 -78 -84 -115 -84 -71 0
14 84 103 97 103 2 0 -4 -15 -13 -32z"/>
<path d="M3295 859 c-4 -6 -5 -13 -2 -16 7 -7 27 6 27 18 0 12 -17 12 -25 -2z"/>
<path d="M2470 795 c-12 -13 -26 -22 -30 -20 -4 3 -10 -5 -14 -18 -3 -12 -1
-23 4 -25 6 -2 10 -11 10 -20 0 -21 36 -83 58 -99 9 -7 24 -13 35 -13 15 0 13
5 -13 26 -33 29 -70 92 -70 122 0 11 14 25 35 35 19 9 35 21 35 27 0 18 -26
11 -50 -15z"/>
<path d="M2550 655 c0 -5 5 -17 10 -25 5 -8 10 -10 10 -5 0 6 -5 17 -10 25 -5
8 -10 11 -10 5z"/>
</g>
</svg>
